<?xml version="1.0" encoding="UTF-8"?>
<svg width="380px" height="240px" viewBox="0 0 380 240" version="1.1" xmlns="http://www.w3.org/2000/svg" xmlns:xlink="http://www.w3.org/1999/xlink">
    <title>Engine</title>
    <g id="Engine" stroke="none" stroke-width="1" fill="none" fill-rule="evenodd">
        <g id="Group" transform="translate(24.000000, 12.000000)" fill="#000000" fill-rule="nonzero">
            <path d="M39.7631579,128 L39.7631579,120.105263 L8.18421053,120.105263 L8.18421053,96.4210526 L31.8684211,96.4210526 L31.8684211,88.5263158 L8.18421053,88.5263158 L8.18421053,64.8421053 L39.7631579,64.8421053 L39.7631579,56.9473684 L0.289473684,56.9473684 L0.289473684,128 L39.7631579,128 Z M55.5526316,128 L55.5526316,96.4210526 L63.4473684,96.4210526 L63.4473684,88.5263158 L55.5526316,88.5263158 L55.5526316,80.6315789 L47.6578947,80.6315789 L47.6578947,128 L55.5526316,128 Z M79.2368421,88.5263158 L79.2368421,80.6315789 L63.4473684,80.6315789 L63.4473684,88.5263158 L79.2368421,88.5263158 Z M87.1315789,128 L87.1315789,88.5263158 L79.2368421,88.5263158 L79.2368421,128 L87.1315789,128 Z M102.921053,88.5263158 L126.605263,88.5263158 L126.605263,112.210526 L102.921053,112.210526 L102.921053,88.5263158 Z M102.921053,135.894737 L102.921053,128 L95.0263158,128 L95.0263158,135.894737 L102.921053,135.894737 Z M126.605263,143.789474 L126.605263,135.894737 L102.921053,135.894737 L102.921053,143.789474 L126.605263,143.789474 Z M102.921053,88.5263158 L95.0263158,88.5263158 L95.0263158,112.210526 L102.921053,112.210526 L102.921053,120.105263 L126.605263,120.105263 L126.605263,135.894737 L134.5,135.894737 L134.5,80.6315789 L102.921053,80.6315789 L102.921053,88.5263158 Z M158.184211,64.8421053 L158.184211,56.9473684 L150.289474,56.9473684 L150.289474,64.8421053 L158.184211,64.8421053 Z M166.078947,128 L166.078947,120.105263 L158.184211,120.105263 L158.184211,80.6315789 L142.394737,80.6315789 L142.394737,88.5263158 L150.289474,88.5263158 L150.289474,120.105263 L142.394737,120.105263 L142.394737,128 L166.078947,128 Z M181.868421,128 L181.868421,96.4210526 L189.763158,96.4210526 L189.763158,88.5263158 L181.868421,88.5263158 L181.868421,80.6315789 L173.973684,80.6315789 L173.973684,128 L181.868421,128 Z M205.552632,88.5263158 L205.552632,80.6315789 L189.763158,80.6315789 L189.763158,88.5263158 L205.552632,88.5263158 Z M213.447368,128 L213.447368,88.5263158 L205.552632,88.5263158 L205.552632,128 L213.447368,128 Z M252.921053,88.5263158 L252.921053,80.6315789 L229.236842,80.6315789 L229.236842,88.5263158 L252.921053,88.5263158 Z M229.236842,120.105263 L229.236842,104.315789 L260.815789,104.315789 L260.815789,88.5263158 L252.921053,88.5263158 L252.921053,96.4210526 L229.236842,96.4210526 L229.236842,88.5263158 L221.342105,88.5263158 L221.342105,120.105263 L229.236842,120.105263 Z M260.815789,120.105263 L260.815789,112.210526 L252.921053,112.210526 L252.921053,120.105263 L260.815789,120.105263 Z M252.921053,128 L252.921053,120.105263 L229.236842,120.105263 L229.236842,128 L252.921053,128 Z" id="Engine"></path>
            <path d="M3.05263158,193 L3.05263158,175.315789 L5.57894737,175.315789 L5.57894737,172.789474 L3.05263158,172.789474 L3.05263158,170.263158 L0.526315789,170.263158 L0.526315789,193 L3.05263158,193 Z M13.1578947,193 L13.1578947,170.263158 L10.6315789,170.263158 L10.6315789,172.789474 L8.10526316,172.789474 L8.10526316,175.315789 L10.6315789,175.315789 L10.6315789,193 L13.1578947,193 Z M8.10526316,177.842105 L8.10526316,175.315789 L5.57894737,175.315789 L5.57894737,177.842105 L8.10526316,177.842105 Z M25.7894737,180.368421 L25.7894737,177.842105 L18.2105263,177.842105 L18.2105263,180.368421 L25.7894737,180.368421 Z M18.2105263,185.421053 L25.7894737,185.421053 L25.7894737,190.473684 L18.2105263,190.473684 L18.2105263,185.421053 Z M18.2105263,185.421053 L15.6842105,185.421053 L15.6842105,190.473684 L18.2105263,190.473684 L18.2105263,193 L28.3157895,193 L28.3157895,180.368421 L25.7894737,180.368421 L25.7894737,182.894737 L18.2105263,182.894737 L18.2105263,185.421053 Z M33.3684211,193 L33.3684211,185.421053 L35.8947368,185.421053 L35.8947368,182.894737 L33.3684211,182.894737 L33.3684211,170.263158 L30.8421053,170.263158 L30.8421053,193 L33.3684211,193 Z M40.9473684,180.368421 L40.9473684,177.842105 L38.4210526,177.842105 L38.4210526,180.368421 L40.9473684,180.368421 Z M38.4210526,182.894737 L38.4210526,180.368421 L35.8947368,180.368421 L35.8947368,182.894737 L38.4210526,182.894737 Z M38.4210526,187.947368 L38.4210526,185.421053 L35.8947368,185.421053 L35.8947368,187.947368 L38.4210526,187.947368 Z M40.9473684,190.473684 L40.9473684,187.947368 L38.4210526,187.947368 L38.4210526,190.473684 L40.9473684,190.473684 Z M43.4736842,193 L43.4736842,190.473684 L40.9473684,190.473684 L40.9473684,193 L43.4736842,193 Z M56.1052632,180.368421 L56.1052632,177.842105 L48.5263158,177.842105 L48.5263158,180.368421 L56.1052632,180.368421 Z M48.5263158,190.473684 L48.5263158,185.421053 L58.6315789,185.421053 L58.6315789,180.368421 L56.1052632,180.368421 L56.1052632,182.894737 L48.5263158,182.894737 L48.5263158,180.368421 L46,180.368421 L46,190.473684 L48.5263158,190.473684 Z M58.6315789,190.473684 L58.6315789,187.947368 L56.1052632,187.947368 L56.1052632,190.473684 L58.6315789,190.473684 Z M56.1052632,193 L56.1052632,190.473684 L48.5263158,190.473684 L48.5263158,193 L56.1052632,193 Z M83.8947368,172.789474 L83.8947368,170.263158 L76.3157895,170.263158 L76.3157895,172.789474 L83.8947368,172.789474 Z M76.3157895,177.842105 L76.3157895,172.789474 L73.7894737,172.789474 L73.7894737,177.842105 L76.3157895,177.842105 Z M86.4210526,180.368421 L86.4210526,172.789474 L83.8947368,172.789474 L83.8947368,180.368421 L86.4210526,180.368421 Z M83.8947368,182.894737 L83.8947368,180.368421 L81.3684211,180.368421 L81.3684211,182.894737 L83.8947368,182.894737 Z M81.3684211,185.421053 L81.3684211,182.894737 L78.8421053,182.894737 L78.8421053,185.421053 L81.3684211,185.421053 Z M78.8421053,187.947368 L78.8421053,185.421053 L76.3157895,185.421053 L76.3157895,187.947368 L78.8421053,187.947368 Z M86.4210526,193 L86.4210526,190.473684 L76.3157895,190.473684 L76.3157895,187.947368 L73.7894737,187.947368 L73.7894737,193 L86.4210526,193 Z M96.5263158,193 L96.5263158,190.473684 L91.4736842,190.473684 L91.4736842,172.789474 L96.5263158,172.789474 L96.5263158,170.263158 L88.9473684,170.263158 L88.9473684,193 L96.5263158,193 Z M99.0526316,175.315789 L99.0526316,172.789474 L96.5263158,172.789474 L96.5263158,175.315789 L99.0526316,175.315789 Z M101.578947,187.947368 L101.578947,175.315789 L99.0526316,175.315789 L99.0526316,187.947368 L101.578947,187.947368 Z M99.0526316,190.473684 L99.0526316,187.947368 L96.5263158,187.947368 L96.5263158,190.473684 L99.0526316,190.473684 Z M119.263158,180.368421 L126.842105,180.368421 L126.842105,187.947368 L119.263158,187.947368 L119.263158,180.368421 Z M119.263158,195.526316 L119.263158,193 L116.736842,193 L116.736842,195.526316 L119.263158,195.526316 Z M126.842105,198.052632 L126.842105,195.526316 L119.263158,195.526316 L119.263158,198.052632 L126.842105,198.052632 Z M119.263158,180.368421 L116.736842,180.368421 L116.736842,187.947368 L119.263158,187.947368 L119.263158,190.473684 L126.842105,190.473684 L126.842105,195.526316 L129.368421,195.526316 L129.368421,177.842105 L119.263158,177.842105 L119.263158,180.368421 Z M142,180.368421 L142,177.842105 L134.421053,177.842105 L134.421053,180.368421 L142,180.368421 Z M134.421053,185.421053 L142,185.421053 L142,190.473684 L134.421053,190.473684 L134.421053,185.421053 Z M134.421053,185.421053 L131.894737,185.421053 L131.894737,190.473684 L134.421053,190.473684 L134.421053,193 L144.526316,193 L144.526316,180.368421 L142,180.368421 L142,182.894737 L134.421053,182.894737 L134.421053,185.421053 Z M149.578947,193 L149.578947,180.368421 L152.105263,180.368421 L152.105263,193 L154.631579,193 L154.631579,180.368421 L157.157895,180.368421 L157.157895,177.842105 L147.052632,177.842105 L147.052632,193 L149.578947,193 Z M159.684211,193 L159.684211,180.368421 L157.157895,180.368421 L157.157895,193 L159.684211,193 Z M172.315789,180.368421 L172.315789,177.842105 L164.736842,177.842105 L164.736842,180.368421 L172.315789,180.368421 Z M164.736842,190.473684 L164.736842,185.421053 L174.842105,185.421053 L174.842105,180.368421 L172.315789,180.368421 L172.315789,182.894737 L164.736842,182.894737 L164.736842,180.368421 L162.210526,180.368421 L162.210526,190.473684 L164.736842,190.473684 Z M174.842105,190.473684 L174.842105,187.947368 L172.315789,187.947368 L172.315789,190.473684 L174.842105,190.473684 Z M172.315789,193 L172.315789,190.473684 L164.736842,190.473684 L164.736842,193 L172.315789,193 Z M187.473684,180.368421 L187.473684,177.842105 L179.894737,177.842105 L179.894737,180.368421 L187.473684,180.368421 Z M179.894737,182.894737 L179.894737,180.368421 L177.368421,180.368421 L177.368421,182.894737 L179.894737,182.894737 Z M190,182.894737 L190,180.368421 L187.473684,180.368421 L187.473684,182.894737 L190,182.894737 Z M187.473684,185.421053 L187.473684,182.894737 L179.894737,182.894737 L179.894737,185.421053 L187.473684,185.421053 Z M190,190.473684 L190,185.421053 L187.473684,185.421053 L187.473684,190.473684 L190,190.473684 Z M179.894737,190.473684 L179.894737,187.947368 L177.368421,187.947368 L177.368421,190.473684 L179.894737,190.473684 Z M187.473684,193 L187.473684,190.473684 L179.894737,190.473684 L179.894737,193 L187.473684,193 Z M210.210526,172.789474 L210.210526,170.263158 L207.684211,170.263158 L207.684211,172.789474 L210.210526,172.789474 Z M212.736842,193 L212.736842,190.473684 L210.210526,190.473684 L210.210526,177.842105 L205.157895,177.842105 L205.157895,180.368421 L207.684211,180.368421 L207.684211,190.473684 L205.157895,190.473684 L205.157895,193 L212.736842,193 Z M217.789474,193 L217.789474,182.894737 L220.315789,182.894737 L220.315789,180.368421 L217.789474,180.368421 L217.789474,177.842105 L215.263158,177.842105 L215.263158,193 L217.789474,193 Z M225.368421,180.368421 L225.368421,177.842105 L220.315789,177.842105 L220.315789,180.368421 L225.368421,180.368421 Z M227.894737,193 L227.894737,180.368421 L225.368421,180.368421 L225.368421,193 L227.894737,193 Z M253.157895,172.789474 L253.157895,170.263158 L245.578947,170.263158 L245.578947,172.789474 L253.157895,172.789474 Z M245.578947,190.473684 L245.578947,193 L255.684211,193 L255.684211,180.368421 L248.105263,180.368421 L248.105263,182.894737 L253.157895,182.894737 L253.157895,190.473684 L245.578947,190.473684 Z M255.684211,175.315789 L255.684211,172.789474 L253.157895,172.789474 L253.157895,175.315789 L255.684211,175.315789 Z M245.578947,190.473684 L245.578947,172.789474 L243.052632,172.789474 L243.052632,190.473684 L245.578947,190.473684 Z M260.736842,193 L260.736842,182.894737 L263.263158,182.894737 L263.263158,180.368421 L260.736842,180.368421 L260.736842,170.263158 L258.210526,170.263158 L258.210526,193 L260.736842,193 Z M268.315789,180.368421 L268.315789,177.842105 L263.263158,177.842105 L263.263158,180.368421 L268.315789,180.368421 Z M270.842105,193 L270.842105,180.368421 L268.315789,180.368421 L268.315789,193 L270.842105,193 Z M283.473684,180.368421 L283.473684,177.842105 L275.894737,177.842105 L275.894737,180.368421 L283.473684,180.368421 Z M275.894737,190.473684 L275.894737,180.368421 L273.368421,180.368421 L273.368421,190.473684 L275.894737,190.473684 Z M286,190.473684 L286,180.368421 L283.473684,180.368421 L283.473684,190.473684 L286,190.473684 Z M283.473684,193 L283.473684,190.473684 L275.894737,190.473684 L275.894737,193 L283.473684,193 Z M298.631579,180.368421 L298.631579,177.842105 L291.052632,177.842105 L291.052632,180.368421 L298.631579,180.368421 Z M291.052632,182.894737 L291.052632,180.368421 L288.526316,180.368421 L288.526316,182.894737 L291.052632,182.894737 Z M301.157895,182.894737 L301.157895,180.368421 L298.631579,180.368421 L298.631579,182.894737 L301.157895,182.894737 Z M298.631579,185.421053 L298.631579,182.894737 L291.052632,182.894737 L291.052632,185.421053 L298.631579,185.421053 Z M301.157895,190.473684 L301.157895,185.421053 L298.631579,185.421053 L298.631579,190.473684 L301.157895,190.473684 Z M291.052632,190.473684 L291.052632,187.947368 L288.526316,187.947368 L288.526316,190.473684 L291.052632,190.473684 Z M298.631579,193 L298.631579,190.473684 L291.052632,190.473684 L291.052632,193 L298.631579,193 Z M308.736842,190.473684 L308.736842,180.368421 L313.789474,180.368421 L313.789474,177.842105 L308.736842,177.842105 L308.736842,170.263158 L306.210526,170.263158 L306.210526,177.842105 L303.684211,177.842105 L303.684211,180.368421 L306.210526,180.368421 L306.210526,190.473684 L308.736842,190.473684 Z M316.315789,190.473684 L316.315789,187.947368 L313.789474,187.947368 L313.789474,190.473684 L316.315789,190.473684 Z M313.789474,193 L313.789474,190.473684 L308.736842,190.473684 L308.736842,193 L313.789474,193 Z M326.421053,193 L326.421053,190.473684 L328.947368,190.473684 L328.947368,187.947368 L326.421053,187.947368 L326.421053,185.421053 L323.894737,185.421053 L323.894737,187.947368 L321.368421,187.947368 L321.368421,190.473684 L323.894737,190.473684 L323.894737,193 L326.421053,193 Z" id="Make2DgamesinGhost."></path>
        </g>
    </g>
</svg>